<svg width="264" height="39" viewBox="0 0 264 39" fill="none" xmlns="http://www.w3.org/2000/svg">
<path d="M11.1355 35.0783C11.1355 34.697 11.356 34.2068 11.356 33.7165C11.356 33.4987 11.3009 33.3352 11.2458 33.1174C11.2458 33.0629 11.1906 33.0629 11.1906 33.0629C10.9701 33.0629 10.3086 35.1327 7.3318 35.2961H6.89079C2.97682 35.2961 1.37816 33.0084 0.551263 30.4484C0.385884 29.9037 0.275632 29.359 0.275632 28.7598C0.275632 25.4372 2.81144 21.2431 7.49718 21.2431C10.1984 21.2431 11.2458 22.4959 11.5765 22.4959C11.6868 22.4959 11.6868 22.3869 11.6868 22.2235V22.1146C11.5765 18.4651 12.1829 12.419 7.82794 12.2556C6.22928 12.3101 3.69346 13.9442 3.63834 19.0098C3.63834 20.0992 2.86657 20.5894 2.03967 20.5894C1.10253 20.5894 0.110252 19.9903 0.0551255 18.8464C0.0551255 18.6285 0 18.3562 0 18.1383C0 13.6718 2.70119 10.676 7.99332 10.676H8.54458C15.5456 10.676 17.2545 16.3408 17.2545 21.9512C17.2545 26.6355 16.0418 31.3743 15.711 32.7361C15.27 34.4791 14.3328 35.9498 12.5688 35.9498C12.4586 35.9498 12.3483 35.8953 12.238 35.8953C11.356 35.7864 11.1355 35.514 11.1355 35.0783ZM7.71769 33.4442C9.97787 33.4442 11.5214 31.102 11.5765 30.3939C11.8522 27.9973 11.8522 26.9079 11.8522 26.1998V24.5657C11.8522 24.1844 10.1432 23.1495 8.87534 23.1495C5.89852 23.204 5.12675 25.3283 4.85112 26.6355C4.79599 26.8534 4.63061 27.8338 4.63061 28.9777C4.68574 30.9386 5.18188 33.3897 7.71769 33.4442Z" fill="#6033A1"/>
<path d="M28.7208 18.8463C28.7208 18.2472 29.1067 16.5041 29.1067 14.8156C29.1067 12.9636 28.6657 11.1662 26.9016 11.1662C26.7914 11.1662 26.6811 11.2206 26.5157 11.2206C24.8068 11.4385 24.0351 15.7416 24.0351 20.2081C24.0351 24.9469 24.9171 29.7402 26.4606 29.7946C27.1773 29.7946 28.5554 29.141 28.7208 25.7639C28.7759 25.0558 29.5477 24.6745 30.2643 24.6745C30.981 24.6745 31.6425 25.0013 31.6425 25.546V25.655C31.0361 31.1564 27.3978 32.1913 26.3504 32.1913H26.2401C21.7197 32.1913 19.0186 25.7639 19.0186 19.6634C19.0186 14.162 21.1685 8.93291 26.0747 8.82397H26.1299C30.1541 8.82397 31.9181 13.1815 31.9181 17.2667C31.9181 17.8114 31.9181 18.3016 31.863 18.7919C31.8079 19.1731 31.9181 20.317 30.1541 20.4259H29.8784C28.831 20.4259 28.6657 19.8268 28.6657 19.3365C28.6657 19.1731 28.7208 18.9553 28.7208 18.8463Z" fill="#6033A1"/>
<path d="M47.1335 21.6243C47.1335 26.4176 44.5977 31.3743 39.9671 31.7011H39.5812C35.5018 31.7011 33.1865 26.581 33.1865 21.6787C33.1865 17.1033 35.2262 12.6368 39.6914 12.6368C44.8182 12.6913 47.1335 17.0489 47.1335 21.6243ZM41.8414 21.4609C41.8414 18.4106 41.0696 15.6327 39.085 15.6327H38.9748C37.5415 15.6871 36.88 18.9008 36.88 22.2234C36.88 25.7095 37.6518 29.25 39.2504 29.25H39.3607C40.7388 29.25 41.8414 25.1648 41.8414 21.4609Z" fill="#6033A1"/>
<path d="M49.0077 25.3827C48.9526 24.021 48.8975 22.7682 48.8975 21.6243C48.8975 18.0838 49.4487 15.6872 51.9294 15.6872C52.2602 15.6872 52.646 15.7416 53.0319 15.7961C54.5755 16.1229 55.4024 16.6676 55.4024 18.7374V19.1732C55.237 20.3171 55.0716 23.9665 55.0716 26.69C55.0716 27.9972 55.1267 29.0866 55.1819 29.6313C55.4575 31.102 56.8357 31.7011 58.2138 31.7011C59.592 31.7011 60.915 30.993 60.915 29.9037V29.8492C60.8599 29.5224 60.8599 29.1411 60.8599 28.6509C60.8599 25.1648 61.5765 18.1383 61.5765 17.757C61.6868 16.2319 63.1752 15.3604 64.6636 15.3604C65.9866 15.3604 67.3648 16.1229 67.6404 17.9204C67.7507 18.5196 67.8609 20.426 67.8609 22.6048C67.8609 26.1997 67.5853 30.7207 66.6481 32.6816C66.2623 33.4986 64.4982 34.7514 63.0649 34.7514C62.2932 34.7514 61.6316 34.3701 61.3009 33.3897C61.1906 33.0084 61.1355 32.845 60.915 32.845C60.8047 32.845 60.6394 32.8995 60.474 32.9539C59.0958 33.6076 57.7177 34.1523 56.1741 34.1523C55.8985 34.1523 55.6229 34.0978 55.2921 34.0978C51.1025 33.662 49.2833 29.5224 49.0077 25.3827Z" fill="#6033A1"/>
<path d="M78.7203 34.8604H78.6101C73.8692 34.8059 70.9475 32.7905 69.7898 30.8297C69.6245 30.4484 69.5693 30.1216 69.5693 29.7947C69.5693 28.4875 70.6167 27.3436 71.6641 27.3436C72.2154 27.3436 72.7115 27.616 73.0974 28.3241C74.3102 30.3939 76.5153 31.6467 78.6652 31.6467H78.7754C80.319 31.6467 81.5318 30.9386 81.9176 30.0126C82.0279 29.7403 82.0279 29.5224 82.0279 29.3045C82.0279 25.7095 70.0655 24.6746 70.0655 16.5042V16.2864C70.1757 12.2012 73.4282 8.87854 78.7203 8.87854H78.9959C83.5163 8.93301 86.2726 11.9833 86.2726 15.5238C86.2726 16.6132 85.997 17.7026 85.5008 18.8464C84.9496 20.2081 83.7368 20.7528 82.6343 20.7528C81.5318 20.7528 80.4843 20.1537 80.4843 19.0643C80.4843 18.9554 80.5395 18.8464 80.5395 18.7919C80.6497 17.9204 80.76 16.94 80.76 15.9595C80.76 13.3995 80.0985 10.9484 77.8934 10.9484H77.728C74.9717 11.1118 74.3102 14.3255 74.3102 16.6132C74.3102 17.1579 74.3653 17.5936 74.3653 17.9749C75.1371 23.7487 86.879 23.7486 86.879 29.0322C86.879 32.6271 83.0202 34.8604 78.7203 34.8604Z" fill="#6033A1"/>
<path d="M97.0777 35.5139C91.8959 35.5139 90.7933 31.6466 90.7933 24.4567C90.7933 21.3519 91.0138 17.5936 91.1792 13.2905C89.6357 13.1271 88.0921 12.9092 87.9268 11.9288V11.8743C87.9268 11.2751 89.6357 10.4036 91.51 10.4036C91.6202 9.3687 92.1715 2.94132 92.392 2.50557C92.5022 1.85194 93.4394 1.57959 94.4868 1.57959C95.5342 1.57959 96.5816 1.90641 96.8021 2.4511C96.9675 2.99579 97.0226 3.64942 97.0226 4.35752C97.0226 6.20948 96.5816 8.38825 96.4162 9.85892V9.96786C96.4162 10.2402 96.5265 10.3491 96.8572 10.3491C97.4636 10.4581 100.551 10.676 101.047 10.7849C101.433 10.8938 101.929 11.3296 101.929 11.8198C101.929 12.0377 101.819 12.2011 101.598 12.3645C100.992 12.7458 97.7944 13.1271 96.4162 13.1815C96.1957 13.1815 95.5342 19.1187 95.5342 24.5112C95.5342 29.141 95.9752 33.3352 97.5739 33.3352H97.629C100.11 33.2807 101.212 29.0321 101.212 26.581V26.3086C101.212 24.7835 102.315 24.1843 103.362 24.1843C104.41 24.1843 105.402 24.729 105.457 25.6005C105.457 25.7095 105.512 25.8729 105.512 26.0908C105.512 28.5419 104.299 35.5139 97.2431 35.5139H97.0777Z" fill="#6033A1"/>
<path d="M114.442 8.3883C114.387 10.2403 113.009 11.0028 110.694 11.0028H110.418C108.544 10.9484 107.11 9.91344 107.11 8.66065C107.11 8.55171 107.11 8.44277 107.165 8.33383C107.441 6.80869 109.04 5.82825 110.583 5.82825C110.694 5.82825 110.804 5.88272 110.969 5.88272C112.458 6.10059 114.442 6.75422 114.442 8.3883ZM110.638 13.7263C112.072 13.7263 113.56 14.3255 113.726 15.5782C113.781 16.1229 113.836 16.94 113.836 17.9749C113.836 22.169 113.229 29.6313 112.292 32.6271C112.127 33.4986 111.41 33.8799 110.694 33.8799C109.977 33.8799 109.095 33.4986 108.599 32.845C108.047 31.5922 107.827 26.4176 107.827 20.7528C107.827 19.0098 107.882 17.2123 107.882 15.4693C107.882 15.3604 107.937 15.2514 107.937 15.197C107.992 14.271 109.315 13.7263 110.638 13.7263Z" fill="#6033A1"/>
<path d="M125.688 18.8464C125.688 18.2472 126.074 16.5042 126.074 14.8157C126.074 12.9637 125.633 11.1662 123.869 11.1662C123.759 11.1662 123.648 11.2207 123.483 11.2207C121.774 11.4386 121.002 15.7416 121.002 20.2081C121.002 24.947 121.884 29.7402 123.428 29.7947C124.145 29.7947 125.523 29.1411 125.688 25.764C125.743 25.0559 126.515 24.6746 127.232 24.6746C127.948 24.6746 128.61 25.0014 128.61 25.5461V25.6551C128.003 31.2654 124.365 32.3003 123.373 32.3003H123.263C118.742 32.3003 116.041 25.8729 116.041 19.7724C116.041 14.271 118.191 9.04192 123.097 8.93298H123.152C127.177 8.93298 128.941 13.2905 128.941 17.3757C128.941 17.9204 128.941 18.4106 128.885 18.9009C128.83 19.2821 128.941 20.426 127.177 20.5349H126.901C125.854 20.5349 125.688 19.9358 125.688 19.4456C125.633 19.1732 125.688 18.9553 125.688 18.8464Z" fill="#6033A1"/>
<path d="M149.282 12.528C150.274 12.528 151.211 12.8548 151.487 13.5629C151.597 13.8352 152.093 17.4847 152.093 21.9511C152.093 29.359 150.66 39 143.273 39H143.163C141.178 39 138.753 37.0936 138.753 32.7905V32.3003C138.808 31.919 139.083 31.6467 139.524 31.5922H139.745C141.729 31.5922 139.524 37.1481 143.108 37.1481C143.273 37.1481 143.438 37.1481 143.659 37.0936C146.195 36.7123 146.25 28.324 146.36 26.69C145.809 27.0168 145.423 27.2891 144.982 27.5615C144.265 27.9972 143.328 28.2696 142.336 28.2696C140.847 28.2696 139.304 27.5615 138.532 25.4916C137.981 24.0754 137.815 22.6592 137.815 21.1886C137.815 20.5349 137.871 19.8268 137.926 19.1732C138.256 15.088 140.517 13.345 142.832 13.345C144.21 13.345 145.588 13.9442 146.581 15.088H146.636C146.636 15.088 146.691 15.0335 146.691 14.9791C146.691 14.8157 146.636 14.5433 146.636 14.271C146.636 14.162 146.636 13.9986 146.691 13.8352C146.911 12.9637 148.124 12.528 149.282 12.528ZM146.415 22.8226C146.415 20.7528 146.36 18.683 146.36 16.6676V16.6131C146.36 15.7961 145.313 15.1425 144.431 15.1425H144.32C142.17 15.2514 141.178 18.0293 141.178 20.8073C141.178 23.4218 142.06 25.9274 143.604 25.9274H143.714C145.533 25.8729 146.415 24.1299 146.415 22.8226Z" fill="#6033A1"/>
<path d="M165.103 35.0783C165.103 34.697 165.324 34.2068 165.324 33.7165C165.324 33.4987 165.269 33.3352 165.214 33.1174C165.214 33.0629 165.158 33.0629 165.158 33.0629C164.938 33.0629 164.276 35.1327 161.3 35.2961H160.859C156.945 35.2961 155.346 33.0084 154.519 30.4484C154.354 29.9037 154.243 29.359 154.243 28.7598C154.243 25.4372 156.779 21.2431 161.465 21.2431C164.166 21.2431 165.214 22.4959 165.544 22.4959C165.655 22.4959 165.655 22.3869 165.655 22.2235V22.1146C165.544 18.4651 166.151 12.419 161.796 12.2556C160.197 12.3101 157.661 13.9442 157.606 19.0098C157.606 20.0992 156.834 20.5894 156.007 20.5894C155.07 20.5894 154.078 19.9903 154.023 18.8464C154.023 18.6285 153.968 18.3562 153.968 18.1383C153.968 13.6718 156.669 10.676 161.961 10.676H162.512C169.513 10.676 171.222 16.3408 171.222 21.9512C171.222 26.6355 170.01 31.3743 169.679 32.7361C169.238 34.4791 168.301 35.9498 166.537 35.9498C166.426 35.9498 166.316 35.8953 166.206 35.8953C165.324 35.7864 165.103 35.514 165.103 35.0783ZM161.685 33.4442C163.946 33.4442 165.489 31.102 165.544 30.3939C165.82 27.9973 165.82 26.9079 165.82 26.1998V24.5657C165.82 24.1844 164.111 23.1495 162.843 23.1495C159.866 23.204 159.095 25.3283 158.819 26.6355C158.764 26.8534 158.598 27.8338 158.598 28.9777C158.654 30.9386 159.15 33.3897 161.685 33.4442Z" fill="#6033A1"/>
<path d="M187.099 19.0643C186.824 17.6481 186.989 16.5042 185.556 15.2514C185.225 14.9791 184.839 14.8157 184.453 14.8157C182.854 14.8157 180.925 17.0489 180.87 18.6285C180.484 25.1648 179.602 31.6467 178.775 32.7905C178.499 33.3352 177.893 33.5531 177.232 33.5531C176.184 33.5531 175.026 33.0084 174.806 32.1369C173.703 28.433 173.538 16.7766 173.538 14.4889V13.8897C173.538 11.4386 175.578 9.91345 177.507 9.91345C178.94 9.91345 180.263 10.785 180.594 12.7459C180.649 13.345 180.815 13.6174 181.035 13.6174C181.752 13.6174 183.13 11.9288 185.28 11.9288C185.556 11.9288 185.831 11.9833 186.162 12.0378C189.084 12.6369 190.021 15.7417 190.021 17.4302C190.021 17.7026 189.966 17.9749 189.966 18.1383C189.745 19.5 188.367 19.8813 187.926 19.8813H187.871C187.43 19.8269 187.154 19.5 187.099 19.0643Z" fill="#6033A1"/>
<path d="M190.957 25.655C190.957 19.8813 193.383 16.9399 198.014 16.9399H198.289C200.439 16.9944 201.707 17.648 202.81 18.574V17.8115C202.81 12.2011 203.471 4.30307 204.408 1.52514C204.794 0.490224 205.786 0 206.779 0C207.826 0 208.929 0.544693 209.259 1.57961C209.535 2.50559 209.7 4.90223 209.7 7.89804C209.7 17.4302 208.433 33.7165 206.999 34.588C206.448 34.9693 205.897 35.1327 205.345 35.1327C204.739 35.1327 204.133 34.9148 203.912 34.5335C203.416 33.771 203.251 31.9735 203.14 30.8296C203.085 30.8296 201.376 33.3897 198.841 33.662C198.565 33.7165 198.344 33.7165 198.069 33.7165C193.659 33.7165 190.957 30.4483 190.902 25.8184V25.655H190.957ZM199.557 19.3366C199.392 19.3366 199.171 19.3366 199.006 19.3911C196.966 19.6089 195.809 22.4958 195.809 25.3827C195.809 28.2151 196.911 30.993 199.226 31.0475H199.337C201.101 31.0475 202.92 29.3589 203.085 27.5615C203.085 27.2346 203.14 26.9078 203.14 26.5265C203.14 24.7835 203.03 22.4413 202.81 21.243C202.699 20.3715 201.431 19.3366 199.557 19.3366Z" fill="#6033A1"/>
<path d="M216.647 21.7877C216.592 23.3129 216.537 24.6201 216.537 25.7095C216.537 30.7752 217.253 32.0824 218.797 32.2458C218.907 32.2458 219.072 32.3003 219.183 32.3003C221.718 32.3003 222.435 29.7402 222.766 27.3981C222.876 26.69 222.876 25.9274 223.813 25.8729C224.585 25.8729 224.916 26.4721 224.916 27.4525C224.916 30.0671 222.215 35.0782 218.466 35.0782H218.301C213.505 34.9148 211.575 27.7249 211.575 23.2584V22.6592C211.685 16.6131 212.843 9.9679 218.135 9.9679C218.797 9.9679 219.569 10.0768 220.34 10.2947C223.648 11.2207 224.585 14.3254 224.585 16.6131C224.585 17.3212 224.475 17.9749 224.365 18.4106C223.593 21.4609 218.135 21.5699 216.647 21.7877ZM219.624 12.419C217.419 12.419 216.978 16.8855 216.978 17.9204V18.0838C216.978 18.574 217.529 18.9553 218.686 18.9553C219.293 18.9553 220.12 18.8464 221.112 18.5196C221.994 18.2472 222.325 17.4302 222.325 16.4497C222.325 14.8157 221.333 12.8003 220.12 12.4735C219.954 12.4735 219.789 12.419 219.624 12.419Z" fill="#6033A1"/>
<path d="M230.373 11.7654C232.082 11.7654 233.735 12.8548 233.735 14.271C233.735 14.3799 233.735 14.5433 233.68 14.6523C234.287 14.4888 236.106 13.5629 238.366 13.5629C239.248 13.5629 240.185 13.6718 241.122 14.1076C244.265 15.1425 245.367 19.3911 245.367 23.6942C245.367 28.433 243.989 33.1718 242.501 33.7165C242.115 33.9344 241.729 34.0433 241.288 34.0433C240.847 34.0433 240.516 33.9344 240.185 33.662C239.744 33.3352 239.634 32.6271 239.634 31.5922C239.634 29.1955 240.516 25.1648 240.516 21.6243C240.516 19.5545 240.24 17.5936 239.248 16.1774C238.862 15.5782 238.201 15.2514 237.539 15.2514C236.271 15.2514 234.783 16.1774 234.066 17.3212C233.846 17.757 233.791 18.1928 233.791 18.683C233.791 19.0098 233.846 19.3366 233.846 19.609C233.735 23.5852 233.239 28.0517 232.523 31.9735C232.302 33.1173 231.144 33.7165 229.932 33.7165C228.664 33.7165 227.341 33.0629 227.175 31.8101C226.9 29.9037 226.734 25.3827 226.734 21.4609C226.734 18.2472 226.845 15.4148 227.01 14.5978C227.396 12.5824 228.884 11.7654 230.373 11.7654Z" fill="#6033A1"/>
<path d="M255.841 34.8604H255.731C250.99 34.8059 248.069 32.7905 246.911 30.8297C246.746 30.4484 246.69 30.1216 246.69 29.7947C246.69 28.4875 247.738 27.3436 248.785 27.3436C249.336 27.3436 249.833 27.616 250.219 28.3241C251.431 30.3939 253.636 31.6467 255.786 31.6467H255.897C257.44 31.6467 258.653 30.9386 259.039 30.0126C259.149 29.7403 259.149 29.5224 259.149 29.3045C259.149 25.7095 247.187 24.6746 247.187 16.5042V16.2864C247.297 12.2012 250.549 8.87854 255.841 8.87854H256.117C260.637 8.93301 263.394 11.9833 263.394 15.5238C263.394 16.6132 263.118 17.7026 262.622 18.8464C262.071 20.2081 260.858 20.7528 259.755 20.7528C258.653 20.7528 257.605 20.1537 257.605 19.0643C257.605 18.9554 257.661 18.8464 257.661 18.7919C257.771 17.9204 257.881 16.94 257.881 15.9595C257.881 13.3995 257.22 10.9484 255.014 10.9484H254.849C252.093 11.1118 251.431 14.3255 251.431 16.6132C251.431 17.1579 251.486 17.5936 251.486 17.9749C252.258 23.7487 264 23.7486 264 29.0322C264 32.6271 260.141 34.8604 255.841 34.8604Z" fill="#6033A1"/>
</svg>
