<svg width="188" height="191" viewBox="0 0 188 191" fill="none" xmlns="http://www.w3.org/2000/svg">
<g opacity="0.6" filter="url(#filter0_if_76_6344)">
<path d="M148 95.6023C148 125.864 106.625 150.396 94.0443 150.396C81.4635 150.396 40 125.864 40 95.6023C40 65.3407 64.1965 40.8088 94.0443 40.8088C123.892 40.8088 148 65.3407 148 95.6023Z" fill="url(#paint0_linear_76_6344)"/>
<path d="M148 95.6023C148 125.864 106.625 150.396 94.0443 150.396C81.4635 150.396 40 125.864 40 95.6023C40 65.3407 64.1965 40.8088 94.0443 40.8088C123.892 40.8088 148 65.3407 148 95.6023Z" fill="url(#paint1_radial_76_6344)" fill-opacity="0.8"/>
<path d="M148 95.6023C148 125.864 106.625 150.396 94.0443 150.396C81.4635 150.396 40 125.864 40 95.6023C40 65.3407 64.1965 40.8088 94.0443 40.8088C123.892 40.8088 148 65.3407 148 95.6023Z" fill="url(#paint2_radial_76_6344)" fill-opacity="0.8"/>
<path d="M148 95.6023C148 125.864 106.625 150.396 94.0443 150.396C81.4635 150.396 40 125.864 40 95.6023C40 65.3407 64.1965 40.8088 94.0443 40.8088C123.892 40.8088 148 65.3407 148 95.6023Z" fill="url(#paint3_radial_76_6344)" fill-opacity="0.8"/>
<path d="M148 95.6023C148 125.864 106.625 150.396 94.0443 150.396C81.4635 150.396 40 125.864 40 95.6023C40 65.3407 64.1965 40.8088 94.0443 40.8088C123.892 40.8088 148 65.3407 148 95.6023Z" fill="url(#paint4_linear_76_6344)"/>
<path d="M148 95.6023C148 125.864 106.625 150.396 94.0443 150.396C81.4635 150.396 40 125.864 40 95.6023C40 65.3407 64.1965 40.8088 94.0443 40.8088C123.892 40.8088 148 65.3407 148 95.6023Z" fill="url(#paint5_radial_76_6344)" fill-opacity="0.8"/>
<path d="M148 95.6023C148 125.864 106.625 150.396 94.0443 150.396C81.4635 150.396 40 125.864 40 95.6023C40 65.3407 64.1965 40.8088 94.0443 40.8088C123.892 40.8088 148 65.3407 148 95.6023Z" fill="url(#paint6_radial_76_6344)" fill-opacity="0.8"/>
<path d="M148 95.6023C148 125.864 106.625 150.396 94.0443 150.396C81.4635 150.396 40 125.864 40 95.6023C40 65.3407 64.1965 40.8088 94.0443 40.8088C123.892 40.8088 148 65.3407 148 95.6023Z" fill="url(#paint7_radial_76_6344)" fill-opacity="0.8"/>
</g>
<g filter="url(#filter1_i_76_6344)">
<path d="M148 84.7935C148 115.055 106.625 139.587 94.0443 139.587C81.4635 139.587 40 115.055 40 84.7935C40 54.5319 64.1965 30 94.0443 30C123.892 30 148 54.5319 148 84.7935Z" fill="url(#paint8_linear_76_6344)"/>
<path d="M148 84.7935C148 115.055 106.625 139.587 94.0443 139.587C81.4635 139.587 40 115.055 40 84.7935C40 54.5319 64.1965 30 94.0443 30C123.892 30 148 54.5319 148 84.7935Z" fill="url(#paint9_radial_76_6344)" fill-opacity="0.8"/>
<path d="M148 84.7935C148 115.055 106.625 139.587 94.0443 139.587C81.4635 139.587 40 115.055 40 84.7935C40 54.5319 64.1965 30 94.0443 30C123.892 30 148 54.5319 148 84.7935Z" fill="url(#paint10_radial_76_6344)" fill-opacity="0.8"/>
<path d="M148 84.7935C148 115.055 106.625 139.587 94.0443 139.587C81.4635 139.587 40 115.055 40 84.7935C40 54.5319 64.1965 30 94.0443 30C123.892 30 148 54.5319 148 84.7935Z" fill="url(#paint11_radial_76_6344)" fill-opacity="0.8"/>
<path d="M148 84.7935C148 115.055 106.625 139.587 94.0443 139.587C81.4635 139.587 40 115.055 40 84.7935C40 54.5319 64.1965 30 94.0443 30C123.892 30 148 54.5319 148 84.7935Z" fill="url(#paint12_linear_76_6344)"/>
<path d="M148 84.7935C148 115.055 106.625 139.587 94.0443 139.587C81.4635 139.587 40 115.055 40 84.7935C40 54.5319 64.1965 30 94.0443 30C123.892 30 148 54.5319 148 84.7935Z" fill="url(#paint13_radial_76_6344)" fill-opacity="0.8"/>
<path d="M148 84.7935C148 115.055 106.625 139.587 94.0443 139.587C81.4635 139.587 40 115.055 40 84.7935C40 54.5319 64.1965 30 94.0443 30C123.892 30 148 54.5319 148 84.7935Z" fill="url(#paint14_radial_76_6344)" fill-opacity="0.8"/>
<path d="M148 84.7935C148 115.055 106.625 139.587 94.0443 139.587C81.4635 139.587 40 115.055 40 84.7935C40 54.5319 64.1965 30 94.0443 30C123.892 30 148 54.5319 148 84.7935Z" fill="url(#paint15_radial_76_6344)" fill-opacity="0.8"/>
</g>
<path fill-rule="evenodd" clip-rule="evenodd" d="M85.1852 64.1985C84.9525 64.1984 84.7221 64.2452 84.5071 64.336C84.2921 64.4268 84.0968 64.5599 83.9322 64.7278C83.7677 64.8956 83.6371 65.0949 83.5481 65.3142C83.4591 65.5335 83.4133 65.7685 83.4133 66.0059V107.576C83.4133 108.055 83.6 108.515 83.9323 108.854C84.2646 109.193 84.7153 109.383 85.1852 109.383C85.6552 109.383 86.1059 109.193 86.4382 108.854C86.7705 108.515 86.9572 108.055 86.9572 107.576V66.0059C86.9572 65.7685 86.9114 65.5335 86.8224 65.3142C86.7333 65.0949 86.6028 64.8956 86.4383 64.7278C86.2737 64.5599 86.0784 64.4268 85.8634 64.336C85.6484 64.2452 85.418 64.1984 85.1852 64.1985ZM77.4191 72.4863C77.6341 72.3959 77.8645 72.3494 78.0972 72.3495C78.33 72.3494 78.5604 72.3959 78.7754 72.4863C78.9904 72.5767 79.1857 72.7092 79.3503 72.8763C79.5148 73.0433 79.6454 73.2417 79.7344 73.4599C79.8234 73.6782 79.8692 73.9121 79.8692 74.1484V99.4333C79.8692 99.9104 79.6825 100.368 79.3502 100.705C79.0179 101.043 78.5672 101.232 78.0972 101.232C77.6273 101.232 77.1766 101.043 76.8443 100.705C76.512 100.368 76.3253 99.9104 76.3253 99.4333V74.1484C76.3253 73.9121 76.3711 73.6782 76.4601 73.4599C76.5491 73.2417 76.6797 73.0433 76.8442 72.8763C77.0088 72.7092 77.2041 72.5767 77.4191 72.4863ZM70.3311 79.3968C70.5461 79.3065 70.7765 79.2601 71.0092 79.2602C71.242 79.2601 71.4724 79.3065 71.6874 79.3968C71.9024 79.487 72.0977 79.6192 72.2623 79.7859C72.4268 79.9527 72.5574 80.1506 72.6464 80.3685C72.7354 80.5863 72.7812 80.8198 72.7812 81.0556V92.5263C72.7812 92.7621 72.7354 92.9955 72.6463 93.2134C72.5573 93.4312 72.4267 93.6291 72.2622 93.7958C72.0977 93.9626 71.9023 94.0948 71.6873 94.185C71.4724 94.2753 71.2419 94.3217 71.0092 94.3217C70.7766 94.3217 70.5461 94.2753 70.3312 94.185C70.1162 94.0948 69.9208 93.9626 69.7563 93.7958C69.5918 93.6291 69.4612 93.4312 69.3722 93.2134C69.2831 92.9955 69.2373 92.7621 69.2373 92.5263V81.0556C69.2373 80.8198 69.2831 80.5863 69.3721 80.3685C69.4611 80.1506 69.5917 79.9527 69.7562 79.7859C69.9208 79.6192 70.1161 79.487 70.3311 79.3968ZM91.5947 72.4863C91.8097 72.3959 92.0401 72.3494 92.2728 72.3495C92.5055 72.3494 92.736 72.3959 92.951 72.4863C93.166 72.5767 93.3613 72.7092 93.5259 72.8763C93.6904 73.0433 93.8209 73.2417 93.91 73.4599C93.999 73.6782 94.0448 73.9121 94.0448 74.1484V99.4333C94.0448 99.9104 93.8581 100.368 93.5258 100.705C93.1935 101.043 92.7428 101.232 92.2728 101.232C91.8029 101.232 91.3522 101.043 91.0199 100.705C90.6876 100.368 90.5009 99.9104 90.5009 99.4333V74.1484C90.5008 73.9121 90.5467 73.6782 90.6357 73.4599C90.7247 73.2417 90.8552 73.0433 91.0198 72.8763C91.1843 72.7092 91.3797 72.5767 91.5947 72.4863ZM99.3604 79.2602C99.1277 79.2601 98.8973 79.3065 98.6823 79.3968C98.4673 79.487 98.2719 79.6192 98.1074 79.7859C97.9428 79.9527 97.8123 80.1506 97.7233 80.3685C97.6342 80.5863 97.5884 80.8198 97.5885 81.0556V92.5263C97.5885 93.0025 97.7752 93.4591 98.1075 93.7958C98.4398 94.1325 98.8905 94.3217 99.3604 94.3217C99.8304 94.3217 100.281 94.1325 100.613 93.7958C100.946 93.4591 101.132 93.0025 101.132 92.5263V81.0556C101.132 80.8198 101.087 80.5863 100.998 80.3685C100.909 80.1506 100.778 79.9527 100.613 79.7859C100.449 79.6192 100.254 79.487 100.039 79.3968C99.8236 79.3065 99.5931 79.2601 99.3604 79.2602ZM105.77 72.4863C105.985 72.3959 106.216 72.3494 106.448 72.3495C106.681 72.3494 106.912 72.3959 107.127 72.4863C107.342 72.5767 107.537 72.7092 107.701 72.8763C107.866 73.0433 107.997 73.2417 108.086 73.4599C108.175 73.6782 108.22 73.9121 108.22 74.1484V99.4333C108.22 99.9104 108.034 100.368 107.701 100.705C107.369 101.043 106.918 101.232 106.448 101.232C105.978 101.232 105.528 101.043 105.195 100.705C104.863 100.368 104.676 99.9104 104.676 99.4333V74.1484C104.676 73.9121 104.722 73.6782 104.811 73.4599C104.9 73.2417 105.031 73.0433 105.195 72.8763C105.36 72.7092 105.555 72.5767 105.77 72.4863ZM113.536 79.2602C113.304 79.2601 113.073 79.3065 112.858 79.3968C112.643 79.487 112.448 79.6192 112.283 79.7859C112.119 79.9527 111.988 80.1506 111.899 80.3685C111.81 80.5863 111.764 80.8198 111.764 81.0556V92.5263C111.764 93.0025 111.951 93.4591 112.283 93.7958C112.616 94.1325 113.066 94.3217 113.536 94.3217C114.006 94.3217 114.457 94.1325 114.789 93.7958C115.122 93.4591 115.308 93.0025 115.308 92.5263V81.0556C115.308 80.8198 115.263 80.5863 115.174 80.3685C115.085 80.1506 114.954 79.9527 114.789 79.7859C114.625 79.6192 114.43 79.487 114.215 79.3968C114 79.3065 113.769 79.2601 113.536 79.2602ZM120.624 84.9304C119.645 84.9304 118.852 85.7237 118.852 86.7023C118.852 87.6809 119.645 88.4743 120.624 88.4743C121.603 88.4743 122.396 87.6809 122.396 86.7023C122.396 85.7237 121.603 84.9304 120.624 84.9304Z" fill="#F9F8FD"/>
<path fill-rule="evenodd" clip-rule="evenodd" d="M85.1852 64.1985C84.9525 64.1984 84.7221 64.2452 84.5071 64.336C84.2921 64.4268 84.0968 64.5599 83.9322 64.7278C83.7677 64.8956 83.6371 65.0949 83.5481 65.3142C83.4591 65.5335 83.4133 65.7685 83.4133 66.0059V107.576C83.4133 108.055 83.6 108.515 83.9323 108.854C84.2646 109.193 84.7153 109.383 85.1852 109.383C85.6552 109.383 86.1059 109.193 86.4382 108.854C86.7705 108.515 86.9572 108.055 86.9572 107.576V66.0059C86.9572 65.7685 86.9114 65.5335 86.8224 65.3142C86.7333 65.0949 86.6028 64.8956 86.4383 64.7278C86.2737 64.5599 86.0784 64.4268 85.8634 64.336C85.6484 64.2452 85.418 64.1984 85.1852 64.1985ZM77.4191 72.4863C77.6341 72.3959 77.8645 72.3494 78.0972 72.3495C78.33 72.3494 78.5604 72.3959 78.7754 72.4863C78.9904 72.5767 79.1857 72.7092 79.3503 72.8763C79.5148 73.0433 79.6454 73.2417 79.7344 73.4599C79.8234 73.6782 79.8692 73.9121 79.8692 74.1484V99.4333C79.8692 99.9104 79.6825 100.368 79.3502 100.705C79.0179 101.043 78.5672 101.232 78.0972 101.232C77.6273 101.232 77.1766 101.043 76.8443 100.705C76.512 100.368 76.3253 99.9104 76.3253 99.4333V74.1484C76.3253 73.9121 76.3711 73.6782 76.4601 73.4599C76.5491 73.2417 76.6797 73.0433 76.8442 72.8763C77.0088 72.7092 77.2041 72.5767 77.4191 72.4863ZM70.3311 79.3968C70.5461 79.3065 70.7765 79.2601 71.0092 79.2602C71.242 79.2601 71.4724 79.3065 71.6874 79.3968C71.9024 79.487 72.0977 79.6192 72.2623 79.7859C72.4268 79.9527 72.5574 80.1506 72.6464 80.3685C72.7354 80.5863 72.7812 80.8198 72.7812 81.0556V92.5263C72.7812 92.7621 72.7354 92.9955 72.6463 93.2134C72.5573 93.4312 72.4267 93.6291 72.2622 93.7958C72.0977 93.9626 71.9023 94.0948 71.6873 94.185C71.4724 94.2753 71.2419 94.3217 71.0092 94.3217C70.7766 94.3217 70.5461 94.2753 70.3312 94.185C70.1162 94.0948 69.9208 93.9626 69.7563 93.7958C69.5918 93.6291 69.4612 93.4312 69.3722 93.2134C69.2831 92.9955 69.2373 92.7621 69.2373 92.5263V81.0556C69.2373 80.8198 69.2831 80.5863 69.3721 80.3685C69.4611 80.1506 69.5917 79.9527 69.7562 79.7859C69.9208 79.6192 70.1161 79.487 70.3311 79.3968ZM91.5947 72.4863C91.8097 72.3959 92.0401 72.3494 92.2728 72.3495C92.5055 72.3494 92.736 72.3959 92.951 72.4863C93.166 72.5767 93.3613 72.7092 93.5259 72.8763C93.6904 73.0433 93.8209 73.2417 93.91 73.4599C93.999 73.6782 94.0448 73.9121 94.0448 74.1484V99.4333C94.0448 99.9104 93.8581 100.368 93.5258 100.705C93.1935 101.043 92.7428 101.232 92.2728 101.232C91.8029 101.232 91.3522 101.043 91.0199 100.705C90.6876 100.368 90.5009 99.9104 90.5009 99.4333V74.1484C90.5008 73.9121 90.5467 73.6782 90.6357 73.4599C90.7247 73.2417 90.8552 73.0433 91.0198 72.8763C91.1843 72.7092 91.3797 72.5767 91.5947 72.4863ZM99.3604 79.2602C99.1277 79.2601 98.8973 79.3065 98.6823 79.3968C98.4673 79.487 98.2719 79.6192 98.1074 79.7859C97.9428 79.9527 97.8123 80.1506 97.7233 80.3685C97.6342 80.5863 97.5884 80.8198 97.5885 81.0556V92.5263C97.5885 93.0025 97.7752 93.4591 98.1075 93.7958C98.4398 94.1325 98.8905 94.3217 99.3604 94.3217C99.8304 94.3217 100.281 94.1325 100.613 93.7958C100.946 93.4591 101.132 93.0025 101.132 92.5263V81.0556C101.132 80.8198 101.087 80.5863 100.998 80.3685C100.909 80.1506 100.778 79.9527 100.613 79.7859C100.449 79.6192 100.254 79.487 100.039 79.3968C99.8236 79.3065 99.5931 79.2601 99.3604 79.2602ZM105.77 72.4863C105.985 72.3959 106.216 72.3494 106.448 72.3495C106.681 72.3494 106.912 72.3959 107.127 72.4863C107.342 72.5767 107.537 72.7092 107.701 72.8763C107.866 73.0433 107.997 73.2417 108.086 73.4599C108.175 73.6782 108.22 73.9121 108.22 74.1484V99.4333C108.22 99.9104 108.034 100.368 107.701 100.705C107.369 101.043 106.918 101.232 106.448 101.232C105.978 101.232 105.528 101.043 105.195 100.705C104.863 100.368 104.676 99.9104 104.676 99.4333V74.1484C104.676 73.9121 104.722 73.6782 104.811 73.4599C104.9 73.2417 105.031 73.0433 105.195 72.8763C105.36 72.7092 105.555 72.5767 105.77 72.4863ZM113.536 79.2602C113.304 79.2601 113.073 79.3065 112.858 79.3968C112.643 79.487 112.448 79.6192 112.283 79.7859C112.119 79.9527 111.988 80.1506 111.899 80.3685C111.81 80.5863 111.764 80.8198 111.764 81.0556V92.5263C111.764 93.0025 111.951 93.4591 112.283 93.7958C112.616 94.1325 113.066 94.3217 113.536 94.3217C114.006 94.3217 114.457 94.1325 114.789 93.7958C115.122 93.4591 115.308 93.0025 115.308 92.5263V81.0556C115.308 80.8198 115.263 80.5863 115.174 80.3685C115.085 80.1506 114.954 79.9527 114.789 79.7859C114.625 79.6192 114.43 79.487 114.215 79.3968C114 79.3065 113.769 79.2601 113.536 79.2602ZM120.624 84.9304C119.645 84.9304 118.852 85.7237 118.852 86.7023C118.852 87.6809 119.645 88.4743 120.624 88.4743C121.603 88.4743 122.396 87.6809 122.396 86.7023C122.396 85.7237 121.603 84.9304 120.624 84.9304Z" fill="url(#paint16_linear_76_6344)"/>
<defs>
<filter id="filter0_if_76_6344" x="0" y="0.808838" width="188" height="189.587" filterUnits="userSpaceOnUse" color-interpolation-filters="sRGB">
<feFlood flood-opacity="0" result="BackgroundImageFix"/>
<feBlend mode="normal" in="SourceGraphic" in2="BackgroundImageFix" result="shape"/>
<feColorMatrix in="SourceAlpha" type="matrix" values="0 0 0 0 0 0 0 0 0 0 0 0 0 0 0 0 0 0 127 0" result="hardAlpha"/>
<feOffset dx="-33.355"/>
<feGaussianBlur stdDeviation="33.355"/>
<feComposite in2="hardAlpha" operator="arithmetic" k2="-1" k3="1"/>
<feColorMatrix type="matrix" values="0 0 0 0 0.80575 0 0 0 0 0.7375 0 0 0 0 1 0 0 0 0.3 0"/>
<feBlend mode="normal" in2="shape" result="effect1_innerShadow_76_6344"/>
<feGaussianBlur stdDeviation="20" result="effect2_foregroundBlur_76_6344"/>
</filter>
<filter id="filter1_i_76_6344" x="6.64495" y="30" width="141.355" height="109.587" filterUnits="userSpaceOnUse" color-interpolation-filters="sRGB">
<feFlood flood-opacity="0" result="BackgroundImageFix"/>
<feBlend mode="normal" in="SourceGraphic" in2="BackgroundImageFix" result="shape"/>
<feColorMatrix in="SourceAlpha" type="matrix" values="0 0 0 0 0 0 0 0 0 0 0 0 0 0 0 0 0 0 127 0" result="hardAlpha"/>
<feOffset dx="-33.355"/>
<feGaussianBlur stdDeviation="33.355"/>
<feComposite in2="hardAlpha" operator="arithmetic" k2="-1" k3="1"/>
<feColorMatrix type="matrix" values="0 0 0 0 0.80575 0 0 0 0 0.7375 0 0 0 0 1 0 0 0 0.3 0"/>
<feBlend mode="normal" in2="shape" result="effect1_innerShadow_76_6344"/>
</filter>
<linearGradient id="paint0_linear_76_6344" x1="148.089" y1="27.5526" x2="27.315" y2="159.709" gradientUnits="userSpaceOnUse">
<stop stop-color="#7041EE"/>
<stop offset="0.527788" stop-color="#8D41EE"/>
<stop offset="1" stop-color="#D641EE"/>
</linearGradient>
<radialGradient id="paint1_radial_76_6344" cx="0" cy="0" r="1" gradientUnits="userSpaceOnUse" gradientTransform="translate(69.3122 13.3822) rotate(95.2815) scale(154.244 220.954)">
<stop stop-color="#52B6FF"/>
<stop offset="1" stop-color="#8F41EE" stop-opacity="0"/>
</radialGradient>
<radialGradient id="paint2_radial_76_6344" cx="0" cy="0" r="1" gradientUnits="userSpaceOnUse" gradientTransform="translate(68.8542 48.1226) rotate(65.6913) scale(61.1927 159.718)">
<stop stop-color="#9DD6FF"/>
<stop offset="1" stop-color="#8F41EE" stop-opacity="0"/>
</radialGradient>
<radialGradient id="paint3_radial_76_6344" cx="0" cy="0" r="1" gradientUnits="userSpaceOnUse" gradientTransform="translate(199.385 137.259) rotate(140.041) scale(96.7979 138.35)">
<stop stop-color="#5263FF"/>
<stop offset="1" stop-color="#8F41EE" stop-opacity="0"/>
</radialGradient>
<linearGradient id="paint4_linear_76_6344" x1="148.089" y1="27.5526" x2="27.315" y2="159.709" gradientUnits="userSpaceOnUse">
<stop stop-color="#7041EE"/>
<stop offset="0.527788" stop-color="#8D41EE"/>
<stop offset="1" stop-color="#D641EE"/>
</linearGradient>
<radialGradient id="paint5_radial_76_6344" cx="0" cy="0" r="1" gradientUnits="userSpaceOnUse" gradientTransform="translate(69.3122 13.3822) rotate(95.2815) scale(154.244 220.954)">
<stop stop-color="#52B6FF"/>
<stop offset="1" stop-color="#8F41EE" stop-opacity="0"/>
</radialGradient>
<radialGradient id="paint6_radial_76_6344" cx="0" cy="0" r="1" gradientUnits="userSpaceOnUse" gradientTransform="translate(68.8542 48.1226) rotate(65.6913) scale(61.1927 159.718)">
<stop stop-color="#9DD6FF"/>
<stop offset="1" stop-color="#8F41EE" stop-opacity="0"/>
</radialGradient>
<radialGradient id="paint7_radial_76_6344" cx="0" cy="0" r="1" gradientUnits="userSpaceOnUse" gradientTransform="translate(199.385 137.259) rotate(140.041) scale(96.7979 138.35)">
<stop stop-color="#5263FF"/>
<stop offset="1" stop-color="#8F41EE" stop-opacity="0"/>
</radialGradient>
<linearGradient id="paint8_linear_76_6344" x1="148.089" y1="16.7438" x2="27.315" y2="148.9" gradientUnits="userSpaceOnUse">
<stop stop-color="#7041EE"/>
<stop offset="0.527788" stop-color="#8D41EE"/>
<stop offset="1" stop-color="#D641EE"/>
</linearGradient>
<radialGradient id="paint9_radial_76_6344" cx="0" cy="0" r="1" gradientUnits="userSpaceOnUse" gradientTransform="translate(69.3122 2.57338) rotate(95.2815) scale(154.244 220.954)">
<stop stop-color="#52B6FF"/>
<stop offset="1" stop-color="#8F41EE" stop-opacity="0"/>
</radialGradient>
<radialGradient id="paint10_radial_76_6344" cx="0" cy="0" r="1" gradientUnits="userSpaceOnUse" gradientTransform="translate(68.8542 37.3138) rotate(65.6913) scale(61.1927 159.718)">
<stop stop-color="#9DD6FF"/>
<stop offset="1" stop-color="#8F41EE" stop-opacity="0"/>
</radialGradient>
<radialGradient id="paint11_radial_76_6344" cx="0" cy="0" r="1" gradientUnits="userSpaceOnUse" gradientTransform="translate(199.385 126.45) rotate(140.041) scale(96.7979 138.35)">
<stop stop-color="#5263FF"/>
<stop offset="1" stop-color="#8F41EE" stop-opacity="0"/>
</radialGradient>
<linearGradient id="paint12_linear_76_6344" x1="148.089" y1="16.7438" x2="27.315" y2="148.9" gradientUnits="userSpaceOnUse">
<stop stop-color="#7041EE"/>
<stop offset="0.527788" stop-color="#8D41EE"/>
<stop offset="1" stop-color="#D641EE"/>
</linearGradient>
<radialGradient id="paint13_radial_76_6344" cx="0" cy="0" r="1" gradientUnits="userSpaceOnUse" gradientTransform="translate(69.3122 2.57338) rotate(95.2815) scale(154.244 220.954)">
<stop stop-color="#52B6FF"/>
<stop offset="1" stop-color="#8F41EE" stop-opacity="0"/>
</radialGradient>
<radialGradient id="paint14_radial_76_6344" cx="0" cy="0" r="1" gradientUnits="userSpaceOnUse" gradientTransform="translate(68.8542 37.3138) rotate(65.6913) scale(61.1927 159.718)">
<stop stop-color="#9DD6FF"/>
<stop offset="1" stop-color="#8F41EE" stop-opacity="0"/>
</radialGradient>
<radialGradient id="paint15_radial_76_6344" cx="0" cy="0" r="1" gradientUnits="userSpaceOnUse" gradientTransform="translate(199.385 126.45) rotate(140.041) scale(96.7979 138.35)">
<stop stop-color="#5263FF"/>
<stop offset="1" stop-color="#8F41EE" stop-opacity="0"/>
</radialGradient>
<linearGradient id="paint16_linear_76_6344" x1="105.222" y1="141.367" x2="93.6095" y2="97.6401" gradientUnits="userSpaceOnUse">
<stop stop-color="#9156F2"/>
<stop offset="1" stop-color="#8B50F2" stop-opacity="0.06"/>
</linearGradient>
</defs>
</svg>
